<svg width="292" height="72" viewBox="0 0 292 72" fill="none" xmlns="http://www.w3.org/2000/svg">
<rect x="0.000488281" y="8" width="292" height="55" rx="15" fill="black" fill-opacity="0.3"/>
<path d="M34.3765 35.72C36.3285 36.136 37.8965 37.112 39.0805 38.648C40.2645 40.152 40.8565 41.88 40.8565 43.832C40.8565 46.648 39.8645 48.888 37.8805 50.552C35.9285 52.184 33.1925 53 29.6725 53H13.9765V19.304H29.1445C32.5685 19.304 35.2405 20.088 37.1605 21.656C39.1125 23.224 40.0885 25.352 40.0885 28.04C40.0885 30.024 39.5605 31.672 38.5045 32.984C37.4805 34.296 36.1045 35.208 34.3765 35.72ZM22.1845 32.936H27.5605C28.9045 32.936 29.9285 32.648 30.6325 32.072C31.3685 31.464 31.7365 30.584 31.7365 29.432C31.7365 28.28 31.3685 27.4 30.6325 26.792C29.9285 26.184 28.9045 25.88 27.5605 25.88H22.1845V32.936ZM28.2325 46.376C29.6085 46.376 30.6645 46.072 31.4005 45.464C32.1685 44.824 32.5525 43.912 32.5525 42.728C32.5525 41.544 32.1525 40.616 31.3525 39.944C30.5845 39.272 29.5125 38.936 28.1365 38.936H22.1845V46.376H28.2325ZM66.5931 47.048H54.0171L52.0011 53H43.4091L55.6011 19.304H65.1051L77.2971 53H68.6091L66.5931 47.048ZM64.4811 40.712L60.3051 28.376L56.1771 40.712H64.4811ZM102.128 19.304V42.248C102.128 45.8 101.12 48.536 99.1037 50.456C97.1197 52.376 94.4317 53.336 91.0397 53.336C87.4877 53.336 84.6397 52.328 82.4957 50.312C80.3517 48.296 79.2797 45.432 79.2797 41.72H87.4397C87.4397 43.128 87.7277 44.2 88.3037 44.936C88.8797 45.64 89.7117 45.992 90.7997 45.992C91.7917 45.992 92.5597 45.672 93.1037 45.032C93.6477 44.392 93.9197 43.464 93.9197 42.248V19.304H102.128ZM124.694 53.336C121.526 53.336 118.614 52.6 115.958 51.128C113.334 49.656 111.238 47.608 109.67 44.984C108.134 42.328 107.366 39.352 107.366 36.056C107.366 32.76 108.134 29.8 109.67 27.176C111.238 24.552 113.334 22.504 115.958 21.032C118.614 19.56 121.526 18.824 124.694 18.824C127.862 18.824 130.758 19.56 133.382 21.032C136.038 22.504 138.118 24.552 139.622 27.176C141.158 29.8 141.926 32.76 141.926 36.056C141.926 39.352 141.158 42.328 139.622 44.984C138.086 47.608 136.006 49.656 133.382 51.128C130.758 52.6 127.862 53.336 124.694 53.336ZM124.694 45.848C127.382 45.848 129.526 44.952 131.126 43.16C132.758 41.368 133.574 39 133.574 36.056C133.574 33.08 132.758 30.712 131.126 28.952C129.526 27.16 127.382 26.264 124.694 26.264C121.974 26.264 119.798 27.144 118.166 28.904C116.566 30.664 115.766 33.048 115.766 36.056C115.766 39.032 116.566 41.416 118.166 43.208C119.798 44.968 121.974 45.848 124.694 45.848ZM164.872 46.664H175.624V53H156.664V19.304H164.872V46.664ZM195.475 53.336C192.307 53.336 189.395 52.6 186.739 51.128C184.115 49.656 182.019 47.608 180.451 44.984C178.915 42.328 178.147 39.352 178.147 36.056C178.147 32.76 178.915 29.8 180.451 27.176C182.019 24.552 184.115 22.504 186.739 21.032C189.395 19.56 192.307 18.824 195.475 18.824C198.643 18.824 201.539 19.56 204.163 21.032C206.819 22.504 208.899 24.552 210.403 27.176C211.939 29.8 212.707 32.76 212.707 36.056C212.707 39.352 211.939 42.328 210.403 44.984C208.867 47.608 206.787 49.656 204.163 51.128C201.539 52.6 198.643 53.336 195.475 53.336ZM195.475 45.848C198.163 45.848 200.307 44.952 201.907 43.16C203.539 41.368 204.355 39 204.355 36.056C204.355 33.08 203.539 30.712 201.907 28.952C200.307 27.16 198.163 26.264 195.475 26.264C192.755 26.264 190.579 27.144 188.947 28.904C187.347 30.664 186.547 33.048 186.547 36.056C186.547 39.032 187.347 41.416 188.947 43.208C190.579 44.968 192.755 45.848 195.475 45.848ZM241.513 19.304V25.88H232.585V53H224.377V25.88H215.449V19.304H241.513ZM253.841 25.88V32.696H264.833V39.032H253.841V46.424H266.273V53H245.633V19.304H266.273V25.88H253.841Z" fill="white"/>
</svg>
