<svg width="292" height="72" viewBox="0 0 292 72" fill="none" xmlns="http://www.w3.org/2000/svg">
<rect x="0.000488281" y="8" width="292" height="55" rx="15" fill="black" fill-opacity="0.3"/>
<path d="M24.3765 35.72C26.3285 36.136 27.8965 37.112 29.0805 38.648C30.2645 40.152 30.8565 41.88 30.8565 43.832C30.8565 46.648 29.8645 48.888 27.8805 50.552C25.9285 52.184 23.1925 53 19.6725 53H3.97649V19.304H19.1445C22.5685 19.304 25.2405 20.088 27.1605 21.656C29.1125 23.224 30.0885 25.352 30.0885 28.04C30.0885 30.024 29.5605 31.672 28.5045 32.984C27.4805 34.296 26.1045 35.208 24.3765 35.72ZM12.1845 32.936H17.5605C18.9045 32.936 19.9285 32.648 20.6325 32.072C21.3685 31.464 21.7365 30.584 21.7365 29.432C21.7365 28.28 21.3685 27.4 20.6325 26.792C19.9285 26.184 18.9045 25.88 17.5605 25.88H12.1845V32.936ZM18.2325 46.376C19.6085 46.376 20.6645 46.072 21.4005 45.464C22.1685 44.824 22.5525 43.912 22.5525 42.728C22.5525 41.544 22.1525 40.616 21.3525 39.944C20.5845 39.272 19.5125 38.936 18.1365 38.936H12.1845V46.376H18.2325ZM56.5931 47.048H44.0171L42.0011 53H33.4091L45.6011 19.304H55.1051L67.2971 53H58.6091L56.5931 47.048ZM54.4811 40.712L50.3051 28.376L46.1771 40.712H54.4811ZM79.2157 46.664H89.9677V53H71.0077V19.304H79.2157V46.664ZM109.819 53.336C106.651 53.336 103.739 52.6 101.083 51.128C98.4587 49.656 96.3627 47.608 94.7947 44.984C93.2587 42.328 92.4907 39.352 92.4907 36.056C92.4907 32.76 93.2587 29.8 94.7947 27.176C96.3627 24.552 98.4587 22.504 101.083 21.032C103.739 19.56 106.651 18.824 109.819 18.824C112.987 18.824 115.883 19.56 118.507 21.032C121.163 22.504 123.243 24.552 124.747 27.176C126.283 29.8 127.051 32.76 127.051 36.056C127.051 39.352 126.283 42.328 124.747 44.984C123.211 47.608 121.131 49.656 118.507 51.128C115.883 52.6 112.987 53.336 109.819 53.336ZM109.819 45.848C112.507 45.848 114.651 44.952 116.251 43.16C117.883 41.368 118.699 39 118.699 36.056C118.699 33.08 117.883 30.712 116.251 28.952C114.651 27.16 112.507 26.264 109.819 26.264C107.099 26.264 104.923 27.144 103.291 28.904C101.691 30.664 100.891 33.048 100.891 36.056C100.891 39.032 101.691 41.416 103.291 43.208C104.923 44.968 107.099 45.848 109.819 45.848ZM166.029 19.304V25.88H157.101V53H148.893V25.88H139.965V19.304H166.029ZM178.356 25.88V32.696H189.348V39.032H178.356V46.424H190.788V53H170.148V19.304H190.788V25.88H178.356ZM213.301 53L206.293 40.28H204.325V53H196.117V19.304H209.893C212.549 19.304 214.805 19.768 216.661 20.696C218.549 21.624 219.957 22.904 220.885 24.536C221.813 26.136 222.277 27.928 222.277 29.912C222.277 32.152 221.637 34.152 220.357 35.912C219.109 37.672 217.253 38.92 214.789 39.656L222.565 53H213.301ZM204.325 34.472H209.413C210.917 34.472 212.037 34.104 212.773 33.368C213.541 32.632 213.925 31.592 213.925 30.248C213.925 28.968 213.541 27.96 212.773 27.224C212.037 26.488 210.917 26.12 209.413 26.12H204.325V34.472ZM244.614 53L237.606 40.28H235.638V53H227.43V19.304H241.206C243.862 19.304 246.118 19.768 247.974 20.696C249.862 21.624 251.27 22.904 252.198 24.536C253.126 26.136 253.59 27.928 253.59 29.912C253.59 32.152 252.95 34.152 251.67 35.912C250.422 37.672 248.566 38.92 246.102 39.656L253.878 53H244.614ZM235.638 34.472H240.726C242.23 34.472 243.35 34.104 244.086 33.368C244.854 32.632 245.238 31.592 245.238 30.248C245.238 28.968 244.854 27.96 244.086 27.224C243.35 26.488 242.23 26.12 240.726 26.12H235.638V34.472ZM279.718 47.048H267.142L265.126 53H256.534L268.726 19.304H278.23L290.422 53H281.734L279.718 47.048ZM277.606 40.712L273.43 28.376L269.302 40.712H277.606Z" fill="white"/>
</svg>
