<svg width="186" height="51" viewBox="0 0 186 51" fill="none" xmlns="http://www.w3.org/2000/svg">
<rect x="0.000488281" width="186" height="51" rx="20" fill="#225D73"/>
<path d="M72.4565 18.92V23.464H79.7845V27.688H72.4565V32.616H80.7445V37H66.9845V14.536H80.7445V18.92H72.4565ZM95.177 18.952C97.2677 18.952 98.9317 19.6347 100.169 21C101.428 22.344 102.057 24.2 102.057 26.568V37H96.617V27.304C96.617 26.1093 96.3077 25.1813 95.689 24.52C95.0703 23.8587 94.2383 23.528 93.193 23.528C92.1477 23.528 91.3157 23.8587 90.697 24.52C90.0783 25.1813 89.769 26.1093 89.769 27.304V37H84.297V19.144H89.769V21.512C90.3237 20.7227 91.0703 20.104 92.009 19.656C92.9477 19.1867 94.0037 18.952 95.177 18.952ZM115.811 32.36V37H113.027C111.043 37 109.497 36.52 108.387 35.56C107.278 34.5787 106.723 32.9893 106.723 30.792V23.688H104.547V19.144H106.723V14.792H112.195V19.144H115.779V23.688H112.195V30.856C112.195 31.3893 112.323 31.7733 112.579 32.008C112.835 32.2427 113.262 32.36 113.859 32.36H115.811ZM135.691 27.784C135.691 28.296 135.659 28.8293 135.595 29.384H123.211C123.297 30.4933 123.649 31.3467 124.267 31.944C124.907 32.52 125.686 32.808 126.603 32.808C127.969 32.808 128.918 32.232 129.451 31.08H135.275C134.977 32.2533 134.433 33.3093 133.643 34.248C132.875 35.1867 131.905 35.9227 130.731 36.456C129.558 36.9893 128.246 37.256 126.795 37.256C125.046 37.256 123.489 36.8827 122.123 36.136C120.758 35.3893 119.691 34.3227 118.923 32.936C118.155 31.5493 117.771 29.928 117.771 28.072C117.771 26.216 118.145 24.5947 118.891 23.208C119.659 21.8213 120.726 20.7547 122.091 20.008C123.457 19.2613 125.025 18.888 126.795 18.888C128.523 18.888 130.059 19.2507 131.403 19.976C132.747 20.7013 133.793 21.736 134.539 23.08C135.307 24.424 135.691 25.992 135.691 27.784ZM130.091 26.344C130.091 25.4053 129.771 24.6587 129.131 24.104C128.491 23.5493 127.691 23.272 126.731 23.272C125.814 23.272 125.035 23.5387 124.395 24.072C123.777 24.6053 123.393 25.3627 123.243 26.344H130.091ZM144.05 22.12C144.69 21.1387 145.49 20.3707 146.45 19.816C147.41 19.24 148.477 18.952 149.65 18.952V24.744H148.146C146.781 24.744 145.757 25.0427 145.074 25.64C144.392 26.216 144.05 27.24 144.05 28.712V37H138.578V19.144H144.05V22.12Z" fill="white"/>
<path d="M36 11C37.9698 11 39.9204 11.388 41.7403 12.1418C43.5601 12.8956 45.2137 14.0005 46.6066 15.3934C47.9995 16.7863 49.1044 18.4399 49.8582 20.2597C50.612 22.0796 51 24.0302 51 26C51 29.9782 49.4196 33.7936 46.6066 36.6066C43.7936 39.4196 39.9782 41 36 41C34.0302 41 32.0796 40.612 30.2597 39.8582C28.4399 39.1044 26.7863 37.9995 25.3934 36.6066C22.5804 33.7936 21 29.9782 21 26C21 22.0218 22.5804 18.2064 25.3934 15.3934C28.2064 12.5804 32.0218 11 36 11V11ZM36 14C29.88 14 24.825 18.575 24.09 24.5H30.195C30.855 21.905 33.21 20 36 20C38.79 20 41.145 21.905 41.805 24.5H47.91C47.175 18.575 42.12 14 36 14ZM36 38C42.12 38 47.175 33.425 47.91 27.5H41.805C41.145 30.095 38.79 32 36 32C33.21 32 30.855 30.095 30.195 27.5H24.09C24.825 33.425 29.88 38 36 38ZM36 23C35.2044 23 34.4413 23.3161 33.8787 23.8787C33.3161 24.4413 33 25.2044 33 26C33 26.7956 33.3161 27.5587 33.8787 28.1213C34.4413 28.6839 35.2044 29 36 29C36.7956 29 37.5587 28.6839 38.1213 28.1213C38.6839 27.5587 39 26.7956 39 26C39 25.2044 38.6839 24.4413 38.1213 23.8787C37.5587 23.3161 36.7956 23 36 23Z" fill="white"/>
</svg>
