<svg width="28" height="28" viewBox="0 0 28 28" fill="none" xmlns="http://www.w3.org/2000/svg">
<rect width="28" height="28" rx="5" fill="#D9D9D9"/>
<path d="M14.6989 18.1193C14.1136 18.1193 13.5966 18.0156 13.1477 17.8082C12.7017 17.598 12.3537 17.3097 12.1037 16.9432C11.8537 16.5739 11.7301 16.1534 11.733 15.6818C11.7301 15.3125 11.8026 14.9716 11.9503 14.6591C12.098 14.3437 12.2997 14.081 12.5554 13.8707C12.8139 13.6577 13.1023 13.5227 13.4205 13.4659V13.4148C13.0028 13.3068 12.6705 13.0724 12.4233 12.7116C12.1761 12.348 12.054 11.9347 12.0568 11.4716C12.054 11.0284 12.1662 10.6321 12.3935 10.2827C12.6207 9.93324 12.9332 9.65767 13.331 9.45597C13.7315 9.25426 14.1875 9.15341 14.6989 9.15341C15.2045 9.15341 15.6563 9.25426 16.054 9.45597C16.4517 9.65767 16.7642 9.93324 16.9915 10.2827C17.2216 10.6321 17.3381 11.0284 17.3409 11.4716C17.3381 11.9347 17.2116 12.348 16.9616 12.7116C16.7145 13.0724 16.3864 13.3068 15.9773 13.4148V13.4659C16.2926 13.5227 16.5767 13.6577 16.8295 13.8707C17.0824 14.081 17.2841 14.3437 17.4347 14.6591C17.5852 14.9716 17.6619 15.3125 17.6648 15.6818C17.6619 16.1534 17.5341 16.5739 17.2812 16.9432C17.0312 17.3097 16.6832 17.598 16.2372 17.8082C15.794 18.0156 15.2813 18.1193 14.6989 18.1193ZM14.6989 17.1818C15.0938 17.1818 15.4347 17.1179 15.7216 16.9901C16.0085 16.8622 16.2301 16.6818 16.3864 16.4489C16.5426 16.2159 16.6222 15.9432 16.625 15.6307C16.6222 15.3011 16.5369 15.0099 16.3693 14.7571C16.2017 14.5043 15.973 14.3054 15.6832 14.1605C15.3963 14.0156 15.0682 13.9432 14.6989 13.9432C14.3267 13.9432 13.9943 14.0156 13.7017 14.1605C13.4119 14.3054 13.1832 14.5043 13.0156 14.7571C12.8509 15.0099 12.7699 15.3011 12.7727 15.6307C12.7699 15.9432 12.8452 16.2159 12.9986 16.4489C13.1548 16.6818 13.3778 16.8622 13.6676 16.9901C13.9574 17.1179 14.3011 17.1818 14.6989 17.1818ZM14.6989 13.0398C15.0114 13.0398 15.2884 12.9773 15.5298 12.8523C15.7741 12.7273 15.9659 12.5526 16.1051 12.3281C16.2443 12.1037 16.3153 11.8409 16.3182 11.5398C16.3153 11.2443 16.2457 10.9872 16.1094 10.7685C15.973 10.5469 15.7841 10.3764 15.5426 10.2571C15.3011 10.1349 15.0199 10.0739 14.6989 10.0739C14.3722 10.0739 14.0866 10.1349 13.8423 10.2571C13.598 10.3764 13.4091 10.5469 13.2756 10.7685C13.142 10.9872 13.0767 11.2443 13.0795 11.5398C13.0767 11.8409 13.1435 12.1037 13.2798 12.3281C13.419 12.5526 13.6108 12.7273 13.8551 12.8523C14.0994 12.9773 14.3807 13.0398 14.6989 13.0398Z" fill="black"/>
</svg>
