<svg width="28" height="28" viewBox="0 0 28 28" fill="none" xmlns="http://www.w3.org/2000/svg">
<rect width="28" height="28" rx="5" fill="#D9D9D9"/>
<path d="M14.6818 9.15341C15.0398 9.15625 15.3977 9.22443 15.7557 9.35795C16.1136 9.49148 16.4403 9.71307 16.7358 10.0227C17.0313 10.3295 17.2685 10.7486 17.4474 11.2798C17.6264 11.8111 17.7159 12.4773 17.7159 13.2784C17.7159 14.054 17.642 14.7429 17.4943 15.3452C17.3494 15.9446 17.1392 16.4503 16.8636 16.8622C16.5909 17.2741 16.2585 17.5866 15.8665 17.7997C15.4773 18.0128 15.0369 18.1193 14.5455 18.1193C14.0568 18.1193 13.6207 18.0227 13.2372 17.8295C12.8565 17.6335 12.544 17.3622 12.2997 17.0156C12.0582 16.6662 11.9034 16.2614 11.8352 15.8011H12.875C12.9688 16.2017 13.1548 16.5327 13.4332 16.794C13.7145 17.0526 14.0852 17.1818 14.5455 17.1818C15.2188 17.1818 15.75 16.8878 16.1392 16.2997C16.5313 15.7116 16.7273 14.8807 16.7273 13.8068H16.6591C16.5 14.0455 16.3111 14.2514 16.0923 14.4247C15.8736 14.598 15.6307 14.7315 15.3636 14.8253C15.0966 14.919 14.8125 14.9659 14.5114 14.9659C14.0114 14.9659 13.5526 14.8423 13.1349 14.5952C12.7202 14.3452 12.3878 14.0028 12.1378 13.5682C11.8906 13.1307 11.767 12.6307 11.767 12.0682C11.767 11.5341 11.8864 11.0455 12.125 10.6023C12.3665 10.1562 12.7045 9.80114 13.1392 9.53693C13.5767 9.27273 14.0909 9.14489 14.6818 9.15341ZM14.6818 10.0909C14.3239 10.0909 14.0014 10.1804 13.7145 10.3594C13.4304 10.5355 13.2045 10.7741 13.0369 11.0753C12.8722 11.3736 12.7898 11.7045 12.7898 12.0682C12.7898 12.4318 12.8693 12.7628 13.0284 13.0611C13.1903 13.3565 13.4105 13.5923 13.6889 13.7685C13.9702 13.9418 14.2898 14.0284 14.6477 14.0284C14.9176 14.0284 15.169 13.9759 15.402 13.8707C15.6349 13.7628 15.8381 13.6165 16.0114 13.4318C16.1875 13.2443 16.3253 13.0327 16.4247 12.7969C16.5241 12.5582 16.5739 12.3097 16.5739 12.0511C16.5739 11.7102 16.4915 11.3906 16.3267 11.0923C16.1648 10.794 15.9403 10.5526 15.6534 10.3679C15.3693 10.1832 15.0455 10.0909 14.6818 10.0909Z" fill="black"/>
</svg>
