<svg width="28" height="35" viewBox="0 0 28 35" fill="none" xmlns="http://www.w3.org/2000/svg">
<rect y="7" width="28" height="28" rx="5" fill="#D9D9D9"/>
<path d="M9 21H18" stroke="#026870" stroke-width="2"/>
<path d="M13.7557 19.1136C13.4053 19.1136 13.1046 18.9882 12.8537 18.7372C12.6027 18.4863 12.4773 18.1856 12.4773 17.8352C12.4773 17.4848 12.6027 17.1842 12.8537 16.9332C13.1046 16.6823 13.4053 16.5568 13.7557 16.5568C14.1061 16.5568 14.4067 16.6823 14.6577 16.9332C14.9086 17.1842 15.0341 17.4848 15.0341 17.8352C15.0341 18.0672 14.9749 18.2803 14.8565 18.4744C14.7429 18.6686 14.589 18.8248 14.3949 18.9432C14.2055 19.0568 13.9924 19.1136 13.7557 19.1136Z" fill="#026870"/>
<path d="M13.7557 25.1136C13.4053 25.1136 13.1046 24.9882 12.8537 24.7372C12.6027 24.4863 12.4773 24.1856 12.4773 23.8352C12.4773 23.4848 12.6027 23.1842 12.8537 22.9332C13.1046 22.6823 13.4053 22.5568 13.7557 22.5568C14.1061 22.5568 14.4067 22.6823 14.6577 22.9332C14.9086 23.1842 15.0341 23.4848 15.0341 23.8352C15.0341 24.0672 14.9749 24.2803 14.8565 24.4744C14.7429 24.6686 14.589 24.8248 14.3949 24.9432C14.2055 25.0568 13.9924 25.1136 13.7557 25.1136Z" fill="#026870"/>
</svg>
