<svg width="28" height="34" viewBox="0 0 28 34" fill="none" xmlns="http://www.w3.org/2000/svg">
<rect y="6" width="28" height="28" rx="5" fill="#4D4C4C"/>
<path d="M10 21H19" stroke="#09CEDC" stroke-width="2"/>
<path d="M14.7557 19.1136C14.4053 19.1136 14.1046 18.9882 13.8537 18.7372C13.6027 18.4863 13.4773 18.1856 13.4773 17.8352C13.4773 17.4848 13.6027 17.1842 13.8537 16.9332C14.1046 16.6823 14.4053 16.5568 14.7557 16.5568C15.1061 16.5568 15.4067 16.6823 15.6577 16.9332C15.9086 17.1842 16.0341 17.4848 16.0341 17.8352C16.0341 18.0672 15.9749 18.2803 15.8565 18.4744C15.7429 18.6686 15.589 18.8248 15.3949 18.9432C15.2055 19.0568 14.9924 19.1136 14.7557 19.1136Z" fill="#09CEDC"/>
<path d="M14.7557 25.1136C14.4053 25.1136 14.1046 24.9882 13.8537 24.7372C13.6027 24.4863 13.4773 24.1856 13.4773 23.8352C13.4773 23.4848 13.6027 23.1842 13.8537 22.9332C14.1046 22.6823 14.4053 22.5568 14.7557 22.5568C15.1061 22.5568 15.4067 22.6823 15.6577 22.9332C15.9086 23.1842 16.0341 23.4848 16.0341 23.8352C16.0341 24.0672 15.9749 24.2803 15.8565 24.4744C15.7429 24.6686 15.589 24.8248 15.3949 24.9432C15.2055 25.0568 14.9924 25.1136 14.7557 25.1136Z" fill="#09CEDC"/>
</svg>
